<svg width="219" height="36" viewBox="0 0 219 36" fill="none" xmlns="http://www.w3.org/2000/svg">
<g clip-path="url(#clip0_2015_1789)">
<path fill-rule="evenodd" clip-rule="evenodd" d="M32.5754 1.82815C33.8422 2.38024 34.9281 3.11637 35.9234 4.12855C36.9188 5.14073 37.6427 6.33694 38.1856 7.62517C38.7285 8.9134 39 10.2936 39 11.6739C39 13.0541 38.7285 14.4344 38.1856 15.7226C37.6427 17.0108 36.9188 18.207 35.9234 19.2192L21.7169 34.0338C20.4501 35.3221 18.4594 35.3221 17.1926 34.0338L2.98608 19.2192C1.08585 17.2869 0 14.5264 0 11.6739C0 8.82138 1.08585 6.15291 2.98608 4.12855C4.88631 2.10419 7.51044 1 10.2251 1C12.9397 1 15.5638 2.10419 17.464 4.12855L19.4548 6.15291L21.4455 4.12855C22.4408 3.11637 23.5267 2.38024 24.7935 1.82815C26.0603 1.27605 27.3271 1 28.6845 1C30.0418 1 31.3991 1.27605 32.5754 1.82815ZM14.116 12.594C12.6682 14.8945 11.5824 17.1949 11.5824 19.6793C11.5824 23.3599 13.5731 26.7645 16.4687 28.1448L17.464 26.6725C18.6404 25.2923 20.5406 25.2923 21.7169 26.6725L22.5313 27.5927C25.4269 26.3045 27.1462 23.1759 27.1462 19.6793C27.1462 16.1827 23.7981 12.594 23.7981 12.594C23.4362 12.226 23.1647 12.41 23.1647 12.8701C23.1647 12.8701 23.3457 17.0108 21.2645 17.0108C19.1833 17.0108 20.1787 15.9066 20.1787 14.4344C20.1787 12.502 20.1787 9.74154 17.826 7.34912C16.9211 6.52097 16.5592 6.24493 16.4687 6.33694C16.1067 6.52097 16.7401 8.9134 14.116 12.594ZM23.4362 9.09743C22.7123 7.90122 21.174 7.16509 20.5406 7.2571C20.2691 7.2571 20.3596 7.44114 20.5406 7.62517C20.8121 7.99323 21.355 8.54533 21.536 9.64953C21.8979 11.5819 24.4316 10.8457 23.3457 9.00541L23.4362 9.09743Z" fill="#004AF7"/>
<path d="M61.192 26V9.2H64.432V26H61.192ZM50.608 26V9.2H53.848V26H50.608ZM53.416 18.728V16.112H61.744V18.728H53.416ZM72.7111 26.288C71.4951 26.288 70.4151 26.032 69.4711 25.52C68.5431 25.008 67.8151 24.288 67.2871 23.36C66.7591 22.432 66.4951 21.368 66.4951 20.168C66.4951 18.92 66.7511 17.824 67.2631 16.88C67.7911 15.92 68.5191 15.168 69.4471 14.624C70.3911 14.08 71.4871 13.808 72.7351 13.808C73.9191 13.808 74.9591 14.064 75.8551 14.576C76.7671 15.088 77.4711 15.792 77.9671 16.688C78.4791 17.568 78.7351 18.568 78.7351 19.688C78.7351 19.848 78.7351 20.032 78.7351 20.24C78.7351 20.432 78.7191 20.632 78.6871 20.84H68.8231V18.848H75.4471C75.3991 18.128 75.1191 17.544 74.6071 17.096C74.1111 16.648 73.4871 16.424 72.7351 16.424C72.1751 16.424 71.6631 16.552 71.1991 16.808C70.7351 17.048 70.3671 17.416 70.0951 17.912C69.8231 18.408 69.6871 19.032 69.6871 19.784V20.48C69.6871 21.12 69.8151 21.68 70.0711 22.16C70.3271 22.64 70.6791 23.008 71.1271 23.264C71.5911 23.52 72.1111 23.648 72.6871 23.648C73.2791 23.648 73.7751 23.52 74.1751 23.264C74.5751 22.992 74.8791 22.648 75.0871 22.232H78.3991C78.1591 22.984 77.7751 23.672 77.2471 24.296C76.7191 24.904 76.0711 25.392 75.3031 25.76C74.5351 26.112 73.6711 26.288 72.7111 26.288ZM84.7006 26.288C83.6926 26.288 82.8526 26.128 82.1806 25.808C81.5246 25.488 81.0366 25.056 80.7166 24.512C80.3966 23.968 80.2366 23.368 80.2366 22.712C80.2366 21.976 80.4206 21.336 80.7886 20.792C81.1726 20.232 81.7486 19.792 82.5166 19.472C83.2846 19.152 84.2526 18.992 85.4206 18.992H88.4206C88.4206 18.416 88.3326 17.944 88.1566 17.576C87.9966 17.192 87.7406 16.912 87.3886 16.736C87.0526 16.544 86.6206 16.448 86.0926 16.448C85.4686 16.448 84.9326 16.584 84.4846 16.856C84.0526 17.128 83.7806 17.544 83.6686 18.104H80.5246C80.6206 17.224 80.9166 16.464 81.4126 15.824C81.9086 15.184 82.5646 14.688 83.3806 14.336C84.1966 13.984 85.1006 13.808 86.0926 13.808C87.2286 13.808 88.2126 14 89.0446 14.384C89.8766 14.752 90.5166 15.304 90.9646 16.04C91.4286 16.76 91.6606 17.64 91.6606 18.68V26H88.9246L88.5646 24.152C88.4046 24.472 88.1966 24.76 87.9406 25.016C87.7006 25.272 87.4206 25.496 87.1006 25.688C86.7806 25.88 86.4206 26.024 86.0206 26.12C85.6206 26.232 85.1806 26.288 84.7006 26.288ZM85.4686 23.792C85.9006 23.792 86.2766 23.72 86.5966 23.576C86.9326 23.416 87.2126 23.208 87.4366 22.952C87.6766 22.696 87.8606 22.4 87.9886 22.064C88.1326 21.728 88.2286 21.368 88.2766 20.984H85.7806C85.2846 20.984 84.8766 21.048 84.5566 21.176C84.2526 21.288 84.0286 21.456 83.8846 21.68C83.7406 21.888 83.6686 22.136 83.6686 22.424C83.6686 22.712 83.7406 22.96 83.8846 23.168C84.0286 23.376 84.2366 23.536 84.5086 23.648C84.7806 23.744 85.1006 23.792 85.4686 23.792ZM93.8453 26V8.72H97.0853V26H93.8453ZM104.877 26C104.029 26 103.285 25.872 102.645 25.616C102.021 25.344 101.533 24.904 101.181 24.296C100.829 23.672 100.653 22.824 100.653 21.752V16.808H98.6129V14.096H100.653L101.013 10.856H103.893V14.096H107.061V16.808H103.893V21.8C103.893 22.344 104.013 22.72 104.253 22.928C104.493 23.136 104.901 23.24 105.477 23.24H106.989V26H104.877ZM108.976 26V8.72H112.216V15.872C112.6 15.248 113.128 14.752 113.8 14.384C114.472 14 115.256 13.808 116.152 13.808C117.144 13.808 117.984 14.024 118.672 14.456C119.36 14.872 119.88 15.488 120.232 16.304C120.6 17.12 120.784 18.128 120.784 19.328V26H117.568V19.616C117.568 18.624 117.368 17.864 116.968 17.336C116.584 16.808 115.952 16.544 115.072 16.544C114.528 16.544 114.04 16.68 113.608 16.952C113.176 17.208 112.832 17.584 112.576 18.08C112.336 18.56 112.216 19.152 112.216 19.856V26H108.976ZM130.678 26.288C128.982 26.288 127.526 25.928 126.31 25.208C125.094 24.472 124.158 23.456 123.502 22.16C122.846 20.848 122.518 19.336 122.518 17.624C122.518 15.912 122.846 14.4 123.502 13.088C124.158 11.776 125.094 10.752 126.31 10.016C127.526 9.28 128.982 8.912 130.678 8.912C132.726 8.912 134.398 9.416 135.694 10.424C136.99 11.432 137.798 12.856 138.118 14.696H134.566C134.358 13.8 133.926 13.104 133.27 12.608C132.614 12.096 131.742 11.84 130.654 11.84C129.646 11.84 128.774 12.08 128.038 12.56C127.318 13.024 126.766 13.688 126.382 14.552C125.998 15.4 125.806 16.424 125.806 17.624C125.806 18.808 125.998 19.832 126.382 20.696C126.766 21.56 127.318 22.224 128.038 22.688C128.774 23.152 129.646 23.384 130.654 23.384C131.742 23.384 132.614 23.152 133.27 22.688C133.926 22.208 134.358 21.544 134.566 20.696H138.118C137.798 22.44 136.99 23.808 135.694 24.8C134.398 25.792 132.726 26.288 130.678 26.288ZM145.755 26.288C144.619 26.288 143.587 26.024 142.659 25.496C141.747 24.968 141.019 24.232 140.475 23.288C139.931 22.344 139.659 21.264 139.659 20.048C139.659 18.816 139.931 17.736 140.475 16.808C141.019 15.864 141.755 15.128 142.683 14.6C143.611 14.072 144.643 13.808 145.779 13.808C146.931 13.808 147.971 14.072 148.899 14.6C149.827 15.128 150.555 15.864 151.083 16.808C151.627 17.736 151.899 18.816 151.899 20.048C151.899 21.28 151.627 22.368 151.083 23.312C150.539 24.24 149.803 24.968 148.875 25.496C147.963 26.024 146.923 26.288 145.755 26.288ZM145.779 23.48C146.291 23.48 146.755 23.352 147.171 23.096C147.603 22.84 147.947 22.456 148.203 21.944C148.475 21.432 148.611 20.8 148.611 20.048C148.611 19.28 148.483 18.648 148.227 18.152C147.971 17.64 147.627 17.256 147.195 17C146.779 16.744 146.315 16.616 145.803 16.616C145.291 16.616 144.819 16.744 144.387 17C143.955 17.256 143.611 17.64 143.355 18.152C143.099 18.648 142.971 19.28 142.971 20.048C142.971 20.8 143.099 21.432 143.355 21.944C143.611 22.456 143.947 22.84 144.363 23.096C144.795 23.352 145.267 23.48 145.779 23.48ZM153.925 26V14.096H156.781L157.021 16.088C157.389 15.4 157.917 14.848 158.605 14.432C159.293 14.016 160.117 13.808 161.077 13.808C162.069 13.808 162.909 14.024 163.597 14.456C164.285 14.872 164.813 15.488 165.181 16.304C165.549 17.12 165.733 18.128 165.733 19.328V26H162.493V19.616C162.493 18.624 162.293 17.864 161.893 17.336C161.493 16.808 160.861 16.544 159.997 16.544C159.453 16.544 158.965 16.68 158.533 16.952C158.101 17.208 157.765 17.584 157.525 18.08C157.285 18.56 157.165 19.152 157.165 19.856V26H153.925ZM167.947 26V14.096H170.803L171.043 16.088C171.411 15.4 171.939 14.848 172.627 14.432C173.315 14.016 174.139 13.808 175.099 13.808C176.091 13.808 176.931 14.024 177.619 14.456C178.307 14.872 178.835 15.488 179.203 16.304C179.571 17.12 179.755 18.128 179.755 19.328V26H176.515V19.616C176.515 18.624 176.315 17.864 175.915 17.336C175.515 16.808 174.883 16.544 174.019 16.544C173.475 16.544 172.987 16.68 172.555 16.952C172.123 17.208 171.787 17.584 171.547 18.08C171.307 18.56 171.187 19.152 171.187 19.856V26H167.947ZM187.801 26.288C186.585 26.288 185.505 26.032 184.561 25.52C183.633 25.008 182.905 24.288 182.377 23.36C181.849 22.432 181.585 21.368 181.585 20.168C181.585 18.92 181.841 17.824 182.353 16.88C182.881 15.92 183.609 15.168 184.537 14.624C185.481 14.08 186.577 13.808 187.825 13.808C189.009 13.808 190.049 14.064 190.945 14.576C191.857 15.088 192.561 15.792 193.057 16.688C193.569 17.568 193.825 18.568 193.825 19.688C193.825 19.848 193.825 20.032 193.825 20.24C193.825 20.432 193.809 20.632 193.777 20.84H183.913V18.848H190.537C190.489 18.128 190.209 17.544 189.697 17.096C189.201 16.648 188.577 16.424 187.825 16.424C187.265 16.424 186.753 16.552 186.289 16.808C185.825 17.048 185.457 17.416 185.185 17.912C184.913 18.408 184.777 19.032 184.777 19.784V20.48C184.777 21.12 184.905 21.68 185.161 22.16C185.417 22.64 185.769 23.008 186.217 23.264C186.681 23.52 187.201 23.648 187.777 23.648C188.369 23.648 188.865 23.52 189.265 23.264C189.665 22.992 189.969 22.648 190.177 22.232H193.489C193.249 22.984 192.865 23.672 192.337 24.296C191.809 24.904 191.161 25.392 190.393 25.76C189.625 26.112 188.761 26.288 187.801 26.288ZM201.567 26.288C200.351 26.288 199.271 26.024 198.327 25.496C197.383 24.952 196.639 24.216 196.095 23.288C195.567 22.344 195.303 21.264 195.303 20.048C195.303 18.832 195.567 17.76 196.095 16.832C196.639 15.888 197.383 15.152 198.327 14.624C199.271 14.08 200.351 13.808 201.567 13.808C203.103 13.808 204.399 14.208 205.455 15.008C206.511 15.808 207.175 16.912 207.447 18.32H204.039C203.895 17.776 203.599 17.352 203.151 17.048C202.703 16.728 202.167 16.568 201.543 16.568C200.999 16.568 200.503 16.712 200.055 17C199.607 17.272 199.255 17.672 198.999 18.2C198.743 18.712 198.615 19.328 198.615 20.048C198.615 20.592 198.687 21.08 198.831 21.512C198.991 21.928 199.199 22.288 199.455 22.592C199.727 22.896 200.039 23.128 200.391 23.288C200.743 23.448 201.127 23.528 201.543 23.528C201.959 23.528 202.335 23.464 202.671 23.336C203.007 23.192 203.295 22.992 203.535 22.736C203.775 22.464 203.943 22.144 204.039 21.776H207.447C207.175 23.152 206.511 24.248 205.455 25.064C204.399 25.88 203.103 26.288 201.567 26.288ZM214.758 26C213.91 26 213.166 25.872 212.526 25.616C211.902 25.344 211.414 24.904 211.062 24.296C210.71 23.672 210.534 22.824 210.534 21.752V16.808H208.494V14.096H210.534L210.894 10.856H213.774V14.096H216.942V16.808H213.774V21.8C213.774 22.344 213.894 22.72 214.134 22.928C214.374 23.136 214.782 23.24 215.358 23.24H216.87V26H214.758Z" fill="#132190"/>
</g>
<defs>
<clipPath id="clip0_2015_1789">
<rect width="219" height="36" fill="white"/>
</clipPath>
</defs>
</svg>
