<svg width="44" height="36" viewBox="0 0 44 36" fill="none" xmlns="http://www.w3.org/2000/svg">
<path fill-rule="evenodd" clip-rule="evenodd" d="M35.9825 0.876861C37.3819 1.46143 38.5813 2.24087 39.6807 3.31258C40.7802 4.3843 41.5798 5.65088 42.1795 7.01488C42.7792 8.37889 43.0791 9.84032 43.0791 11.3018C43.0791 12.7632 42.7792 14.2246 42.1795 15.5886C41.5798 16.9526 40.7802 18.2192 39.6807 19.2909L23.9884 34.977C22.589 36.341 20.3901 36.341 18.9908 34.977L3.2984 19.2909C1.19942 17.2449 0 14.3221 0 11.3018C0 8.28146 1.19942 5.45602 3.2984 3.31258C5.39738 1.16915 8.29597 0 11.2945 0C14.2931 0 17.1917 1.16915 19.2906 3.31258L21.4896 5.45602L23.6885 3.31258C24.788 2.24087 25.9874 1.46143 27.3867 0.876861C28.786 0.292287 30.1853 0 31.6846 0C33.1839 0 34.6832 0.292287 35.9825 0.876861ZM15.5924 12.276C13.9932 14.7118 12.7938 17.1475 12.7938 19.7781C12.7938 23.6752 14.9927 27.2801 18.1912 28.7415L19.2906 27.1827C20.59 25.7212 22.689 25.7212 23.9884 27.1827L24.8879 28.157C28.0864 26.793 29.9854 23.4804 29.9854 19.7781C29.9854 16.0758 26.2872 12.276 26.2872 12.276C25.8874 11.8863 25.5876 12.0812 25.5876 12.5683C25.5876 12.5683 25.7875 16.9526 23.4886 16.9526C21.1897 16.9526 22.2892 15.7835 22.2892 14.2246C22.2892 12.1786 22.2892 9.25575 19.6904 6.7226C18.6909 5.84574 18.2911 5.55345 18.1912 5.65088C17.7914 5.84574 18.491 8.37889 15.5924 12.276ZM25.8874 8.57375C25.0878 7.30717 23.3886 6.52774 22.689 6.62517C22.3891 6.62517 22.4891 6.82003 22.689 7.01488C22.9888 7.4046 23.5885 7.98917 23.7885 9.15832C24.1883 11.2043 26.9869 10.4249 25.7875 8.47632L25.8874 8.57375Z" fill="#2F73F2"/>
</svg>
